<svg xmlns="http://www.w3.org/2000/svg" width="1125.000000pt" height="675.000000pt" viewBox="0 0 1125.000000 675.000000" preserveAspectRatio="xMidYMid meet"><g transform="translate(0.000000,675.000000) scale(0.100000,-0.100000)" fill="#000000" stroke="none"><path d="M5380 5832 c-140 -196 -254 -364 -254 -372 0 -9 98 -185 218 -393 l218 -377 -98 -174 c-54 -96 -101 -173 -103 -170 -3 3 -233 416 -511 917 -278 502 -510 911 -515 911 -6 -1 -73 -107 -151 -235 -341 -565 -1065 -1764 -1260 -2087 l-214 -353 222 -380 221 -380 399 668 c220 367 479 802 576 965 97 164 179 297 182 297 3 0 110 -196 239 -437 516 -966 795 -1482 801 -1482 3 0 148 257 321 571 173 315 319 578 325 587 10 13 102 -141 573 -960 31 -54 58 -98 61 -98 4 0 1580 2754 1878 3281 l33 59 -1063 0 -1063 0 -199 -350 c-109 -193 -200 -349 -201 -348 -2 2 -87 158 -190 348 -103 190 -187 346 -188 347 -2 1 -117 -159 -257 -355z m1867 -386 c-7 -19 -598 -1089 -606 -1098 -6 -6 -192 328 -199 357 -3 11 337 642 394 733 14 22 18 22 215 22 169 0 200 -2 196 -14z"></path><path d="M440 1890 l0 -500 135 0 135 0 2 266 3 266 193 -266 194 -266 114 0 114 0 0 500 0 500 -135 0 -135 0 -2 -257 -3 -257 -185 257 -185 256 -122 0 -123 1 0 -500z"></path><path d="M1520 1890 l0 -500 140 0 140 0 0 500 0 500 -140 0 -140 0 0 -500z"></path><path d="M1990 1890 l0 -500 140 0 140 0 2 217 3 217 140 -217 140 -217 163 0 c90 0 162 3 160 8 -1 4 -79 119 -171 255 -94 137 -166 254 -163 262 2 7 73 115 155 239 83 124 151 228 151 231 0 3 -71 5 -158 5 l-158 0 -130 -207 -129 -206 -3 206 -2 207 -140 0 -140 0 0 -500z"></path><path d="M2960 1890 l0 -500 140 0 140 0 2 217 3 217 140 -217 140 -217 163 0 c90 0 162 3 160 8 -1 4 -79 119 -171 255 -94 137 -166 254 -163 262 2 7 73 115 155 239 83 124 151 228 151 231 0 3 -71 5 -158 5 l-158 0 -130 -207 -129 -206 -3 206 -2 207 -140 0 -140 0 0 -500z"></path><path d="M4105 2328 c18 -48 335 -858 362 -926 4 -9 37 -12 135 -10 l129 3 190 494 c104 271 189 495 189 497 0 3 -70 3 -156 2 l-157 -3 -94 -295 c-52 -162 -98 -298 -101 -302 -4 -4 -52 130 -106 298 l-100 304 -157 0 -158 0 24 -62z"></path><path d="M5220 1890 l0 -500 140 0 140 0 0 500 0 500 -140 0 -140 0 0 -500z"></path><path d="M5687 2383 c-4 -3 -7 -228 -7 -500 l0 -493 330 0 330 0 0 120 0 120 -190 0 -190 0 0 75 0 75 165 0 165 0 0 115 0 115 -165 0 -165 0 0 70 0 70 185 0 185 0 0 120 0 120 -318 0 c-175 0 -322 -3 -325 -7z"></path><path d="M6500 1891 l0 -501 140 0 140 0 0 156 0 155 51 -3 51 -3 81 -152 82 -153 153 0 153 0 -12 23 c-6 12 -50 93 -96 179 l-85 157 55 53 c74 73 101 143 95 253 -5 99 -32 163 -95 227 -25 26 -73 59 -107 75 l-61 28 -272 3 -273 3 0 -500z m475 237 c50 -23 71 -101 39 -146 -27 -38 -67 -52 -154 -52 l-80 0 0 105 0 105 85 0 c46 0 96 -5 110 -12z"></path><path d="M7467 2383 c-4 -3 -7 -228 -7 -500 l0 -493 330 0 330 0 0 120 0 120 -190 0 -190 0 0 75 0 75 165 0 165 0 0 115 0 115 -165 0 -165 0 0 70 0 70 185 0 185 0 0 120 0 120 -318 0 c-175 0 -322 -3 -325 -7z"></path><path d="M8270 1891 l0 -501 140 0 140 0 0 156 0 155 51 -3 51 -3 81 -152 82 -153 153 0 153 0 -12 23 c-6 12 -50 93 -96 179 l-85 157 55 53 c74 73 101 143 95 253 -5 99 -32 163 -95 227 -25 26 -73 59 -107 75 l-61 28 -272 3 -273 3 0 -500z m475 237 c50 -23 71 -101 39 -146 -27 -38 -67 -52 -154 -52 l-80 0 0 105 0 105 85 0 c46 0 96 -5 110 -12z"></path><path d="M9250 1890 l0 -501 278 3 277 3 57 28 c68 33 139 109 156 165 18 58 15 150 -7 197 -19 42 -61 90 -99 115 l-23 15 45 47 c125 131 83 321 -89 400 -48 22 -63 23 -322 26 l-273 3 0 -501z m467 258 c29 -27 31 -86 4 -119 -17 -22 -29 -24 -115 -27 l-96 -4 0 86 0 86 92 0 c80 0 95 -3 115 -22z m0 -368 c51 -30 56 -97 13 -140 -17 -17 -34 -20 -120 -20 l-100 0 0 90 0 90 88 0 c69 0 94 -4 119 -20z"></path><path d="M10180 1890 l0 -500 320 0 320 0 0 125 0 125 -180 0 -180 0 0 375 0 375 -140 0 -140 0 0 -500z"></path></g></svg>